<svg width="40" height="40" viewBox="0 0 40 40" fill="none" xmlns="http://www.w3.org/2000/svg">
<circle cx="19" cy="20" r="18" fill="white"/>
<path fill-rule="evenodd" clip-rule="evenodd" d="M20 0C8.954 0 0 8.954 0 20C0 31.046 8.954 40 20 40C31.046 40 40 31.046 40 20C40 8.954 31.046 0 20 0ZM13 15C13 14.0807 13.1811 13.1705 13.5328 12.3212C13.8846 11.4719 14.4002 10.7003 15.0503 10.0503C15.7003 9.40024 16.4719 8.88463 17.3212 8.53284C18.1705 8.18106 19.0807 8 20 8C20.9193 8 21.8295 8.18106 22.6788 8.53284C23.5281 8.88463 24.2997 9.40024 24.9497 10.0503C25.5998 10.7003 26.1154 11.4719 26.4672 12.3212C26.8189 13.1705 27 14.0807 27 15C27 16.8565 26.2625 18.637 24.9497 19.9497C23.637 21.2625 21.8565 22 20 22C18.1435 22 16.363 21.2625 15.0503 19.9497C13.7375 18.637 13 16.8565 13 15ZM32.516 29.968C31.0189 31.8512 29.1156 33.3719 26.9483 34.4164C24.7811 35.4609 22.4058 36.0022 20 36C17.5942 36.0022 15.2189 35.4609 13.0517 34.4164C10.8844 33.3719 8.98113 31.8512 7.484 29.968C10.726 27.642 15.15 26 20 26C24.85 26 29.274 27.642 32.516 29.968Z" fill="#B3B3B3"/>
</svg>
